<svg width="21" height="20" viewBox="0 0 21 20" fill="none" xmlns="http://www.w3.org/2000/svg">
<path fill-rule="evenodd" clip-rule="evenodd" d="M3.83454 2L2.73535 3.08126L16.88 17L17.9792 15.9184L3.83454 2Z" fill="black" fill-opacity="0.6"/>
<path d="M5.05774 5.3662L6.09234 6.38424C4.95979 7.33314 4.05793 8.51428 3.47515 9.54769L3.47338 9.55118C5.09643 12.2215 7.67173 14.7451 10.9221 14.3624C11.7995 14.259 12.6179 13.9639 13.3657 13.5416L14.4131 14.5719C12.9554 15.4925 11.2845 15.9801 9.47402 15.7391C6.20946 15.3046 3.5401 12.6699 1.85742 9.57563C2.64748 8.01137 3.72821 6.51486 5.05774 5.3662ZM7.41087 3.85747C8.32373 3.45723 9.31147 3.22184 10.3663 3.20508C10.4249 3.20473 11.1201 3.23721 11.4353 3.2882C11.633 3.32033 11.83 3.36049 12.0241 3.41044C15.1208 4.20427 17.415 6.78029 18.8574 9.43419C18.2523 10.6366 17.4597 11.8101 16.5146 12.8156L15.5112 11.8282C16.2094 11.0879 16.7914 10.2636 17.2397 9.46422C17.2397 9.46422 16.7889 8.75106 16.4472 8.30334C16.2275 8.01556 15.9964 7.73616 15.7536 7.4669C15.562 7.25456 14.8177 6.53337 14.6406 6.3832C13.4523 5.37772 12.0571 4.58878 10.3837 4.60205C9.7356 4.61218 9.11236 4.73791 8.52071 4.94955L7.41087 3.85747Z" fill="black" fill-opacity="0.6"/>
<path fill-rule="evenodd" clip-rule="evenodd" d="M7.87398 8.13802L8.67266 8.9236L11.7469 11.9486C11.3359 12.1756 10.8617 12.3048 10.3574 12.3048C8.78684 12.3048 7.51196 11.0504 7.51196 9.50496C7.51196 9.00869 7.64364 8.54245 7.87398 8.13802ZM10.3048 6.70578C10.3222 6.70543 10.34 6.70508 10.3574 6.70508C11.9279 6.70508 13.2028 7.95991 13.2028 9.50496C13.2028 9.52242 13.2028 9.53954 13.2024 9.55665L10.3048 6.70578Z" fill="black" fill-opacity="0.6"/>
</svg>
